<svg xmlns="http://www.w3.org/2000/svg" xml:space="preserve" style="enable-background:new 0 0 600 600" viewBox="0 0 600 600" fill="#bf4f54" stroke="#bf4f54" stroke-width="36" stroke-miterlimit="10">
  <path d="M451.1 170.3H150.8C79 169.2 20 226.5 18.9 298.3s56.2 130.8 128 131.9h3.9c34.5.2 67.7-13.6 92-38.1 2.3-2.5 2.3-6.3 0-8.8-2.3-2.5-6.2-2.7-8.7-.4l-.4.4c-45.8 45.9-120 46-165.9.3-45.9-45.8-46-120-.3-165.9 22.1-22.1 52-34.5 83.3-34.5h300.3c64.3.5 116.1 53 115.7 117.3s-53 116.1-117.3 115.7-116.1-53-115.7-117.3c.2-25.8 8.9-50.9 24.9-71.2 2.2-2.7 1.9-6.7-.8-9-2.9-2-6.7-1.5-9 1.1-44.6 56.4-35 138.3 21.4 182.9 56.4 44.6 138.3 35 182.9-21.4 44.6-56.4 35-138.3-21.4-182.9-23-18.2-51.4-28.1-80.7-28.1z"/>
</svg>